<svg xmlns="http://www.w3.org/2000/svg" width="124.45" height="80.558" viewBox="0 0 124.45 80.558">
  <g id="Element_4_1_2_" data-name="Element 4 1(2)" transform="translate(0.5 0.5)">
    <g id="Gruppe_2" data-name="Gruppe 2" transform="translate(86.708 -0.5)">
      <path id="Pfad_1" data-name="Pfad 1" d="M351.947-.5h3.262q12.8,1.891,14.679,14.452V55.7a100.307,100.307,0,0,0-37.24-43.889q6.312-5.073,12.777-10.036A21.869,21.869,0,0,1,351.947-.5Z" transform="translate(-332.648 0.5)" fill="#baddfa" fill-rule="evenodd" opacity="0.981"/>
    </g>
    <g id="Gruppe_3" data-name="Gruppe 3" transform="translate(-0.165 -0.467)">
      <path id="Pfad_2" data-name="Pfad 2" d="M42.887,16.915A79.541,79.541,0,0,0,1.535,11.77Q4.2,2.437,13.859.53A16.051,16.051,0,0,1,25.087,2.968Q34.064,9.887,42.887,16.915Z" transform="translate(-1.535 -0.354)" fill="#8fc9f8" fill-rule="evenodd" opacity="0.969"/>
    </g>
    <g id="Gruppe_4" data-name="Gruppe 4" transform="translate(-0.5 9.644)">
      <path id="Pfad_3" data-name="Pfad 3" d="M40.519,45.855c6.825,5.3,13.752,11.079,20.51,16.489.46-.3.977-.8,1.475-1.105q20.341,20.185,21.443,49.122H48.562q-1.7-31.452-28.687-47.1A54.537,54.537,0,0,0-.5,57.191V42.076l.536-1.349A76.6,76.6,0,0,1,40.519,45.855Z" transform="translate(0.501 -39.947)" fill="#42a5f4" fill-rule="evenodd" opacity="0.994"/>
    </g>
    <g id="Gruppe_5" data-name="Gruppe 5" transform="translate(62.394 11.368)">
      <path id="Pfad_4" data-name="Pfad 4" d="M259.39,45.8a100.408,100.408,0,0,1,36.666,44.177v10.236q-1.74,11.852-13.382,14.277H255.911Q254.811,85.6,234.5,65.46,246.828,55.476,259.39,45.8Z" transform="translate(-234.5 -45.795)" fill="#8fc9f8" fill-rule="evenodd" opacity="0.994"/>
    </g>
    <g id="Gruppe_6" data-name="Gruppe 6" transform="translate(-0.5 26.501)">
      <path id="Pfad_5" data-name="Pfad 5" d="M-.5,105.136a54.288,54.288,0,0,1,20.383,6.117q26.991,15.759,28.7,47.438H17.2A38.137,38.137,0,0,0,2.985,129.741q-1.7-1.247-3.486-2.312Z" transform="translate(0.501 -105.136)" fill="#1e88e4" fill-rule="evenodd" opacity="0.993"/>
    </g>
    <g id="Gruppe_7" data-name="Gruppe 7" transform="translate(-0.603 48.968)">
      <path id="Pfad_6" data-name="Pfad 6" d="M.1-.416Q1.894.655,3.591,1.913A38.533,38.533,0,0,1,17.812,31.087H13.519Q2.645,29.168.1,18.215Z" fill="#0c449e" fill-rule="evenodd" opacity="0.976"/>
    </g>
  </g>
</svg>
